<?xml version="1.0" encoding="UTF-8" standalone="no"?>
<!-- Created with Inkscape (http://www.inkscape.org/) -->

<svg
   width="77.570213mm"
   height="56.338852mm"
   viewBox="0 0 77.570214 56.338852"
   version="1.1"
   id="svg1"
   xml:space="preserve"
   xmlns:xlink="http://www.w3.org/1999/xlink"
   xmlns="http://www.w3.org/2000/svg"
   xmlns:svg="http://www.w3.org/2000/svg"><defs
     id="defs1"><linearGradient
       id="linearGradient6"><stop
         style="stop-color:#6b0763;stop-opacity:1;"
         offset="0"
         id="stop6" /><stop
         style="stop-color:#b934b9;stop-opacity:0.9716599;"
         offset="1"
         id="stop7" /></linearGradient><linearGradient
       xlink:href="#linearGradient6"
       id="linearGradient7"
       x1="119.7618"
       y1="179.50046"
       x2="122.40197"
       y2="155.74442"
       gradientUnits="userSpaceOnUse" /></defs><g
     id="layer1"
     transform="translate(-60.658245,-134.03968)"><path
       id="path1-2"
       style="fill:url(#linearGradient7);fill-opacity:1;stroke-width:0.00661456"
       d="m 132.17738,174.66851 0.80037,0.79375 -8.86355,8.87015 -4.3524,-4.3524 0.80037,-0.80036 3.55203,3.55203 z m -7.84075,15.47895 c -1.30924,-0.25827 -4.19641,-1.58801 -4.96186,-2.28528 -0.4657,-0.42423 -1.06862,-0.48521 -5.02708,-0.50848 -11.84593,-0.0696 -19.182286,-3.32578 -19.182286,-8.51382 0,-2.02965 0.49759,-1.90655 -7.706584,-1.90655 -6.869554,0 -6.869554,0 -7.518986,-0.64943 -1.536195,-1.5362 -0.112878,-3.31932 2.649534,-3.31932 1.519296,0 1.840669,-0.0885 2.418034,-0.66587 1.359934,-1.35993 0.134934,-2.77372 -2.403338,-2.77372 -2.779246,0 -4.012736,-1.70622 -2.399646,-3.31931 0.606028,-0.60603 0.832825,-0.64944 3.393463,-0.64944 3.219083,0 4.26081,-0.57208 3.739738,-2.05374 -0.474347,-1.3488 -0.755882,-1.3806 -13.379031,-1.51112 -6.453597,-0.0667 -11.878002,-0.12537 -12.054234,-0.13031 -1.308988,-0.0367 -1.698717,-1.86702 -0.625972,-2.93976 0.773397,-0.7734 0.773397,-0.7734 7.800168,-0.7734 7.026771,0 7.026771,0 7.193649,-0.66489 0.216326,-0.86191 -0.284454,-1.45178 -1.232524,-1.45178 -1.465751,0 -2.022765,-1.68806 -0.920674,-2.79015 0.649432,-0.64943 0.649432,-0.64943 6.992255,-0.64943 6.342823,0 6.342823,0 6.865601,-0.6646 1.05316,-1.33888 0.140876,-2.27429 -2.442016,-2.50393 -2.44237,-0.21714 -3.291082,-1.90149 -1.739792,-3.45278 0.475253,-0.4753 0.892825,-0.52249 4.623479,-0.52249 4.101042,0 4.101042,0 4.101042,4.83592 0,4.00419 0.07279,4.93985 0.423224,5.44016 0.38924,0.55571 0.38765,0.64354 -0.0198,1.09374 -0.848303,0.93736 -0.483435,10.89095 0.45793,12.49233 2.32545,3.95588 10.315786,6.95312 18.962386,7.11294 2.79179,0.0516 3.40397,-0.37843 3.45554,-2.42737 0.002,-0.0878 -1.69262,-0.22744 -3.76629,-0.31038 -10.01453,-0.40054 -16.473146,-3.40636 -16.614076,-7.73213 -0.19999,-6.13914 -0.0388,-7.34129 0.88964,-6.63316 6.887546,5.25339 26.001756,5.79323 35.634326,1.00641 1.38245,-0.68699 2.60096,-1.28889 2.7078,-1.33755 0.61631,-0.28068 0.062,8.34203 -0.60035,9.33942 -0.67068,1.00988 -0.67068,1.00988 0.73193,2.33642 8.16144,7.71875 0.67804,21.67704 -10.44523,19.4828 z m 6.09072,-2.72537 c 6.62125,-2.92823 7.63505,-12.14142 1.77094,-16.09387 -5.02174,-3.38468 -11.49138,-1.80841 -14.06917,3.42784 -3.83086,7.78156 4.33237,16.18892 12.29823,12.66603 z m -22.82653,-27.03524 c -9.751606,-1.54188 -12.170836,-3.51009 -12.170836,-9.90181 0,-4.46941 0,-4.46941 1.50542,-3.56289 8.557056,5.15279 27.607316,5.14263 36.179556,-0.0193 0.84561,-0.50919 1.58257,-0.92581 1.6377,-0.92581 0.33161,0 0.064,8.29849 -0.2897,8.98241 -2.23585,4.32367 -16.11165,7.12723 -26.86214,5.42741 z m 1.85208,-12.58982 c -9.672216,-1.11138 -15.702976,-4.56717 -14.023746,-8.03599 3.44722,-7.12101 32.263976,-7.79291 38.493536,-0.89753 4.70712,5.21021 -10.03462,10.59218 -24.46979,8.93352 z" /></g></svg>
